#!OML:ASF E:\Mandelcareful walks\Project 1\Capture day 1\Session 1\Subject1.ASF
:FULLY-SPECIFIED
:DEGREES
407
root -4.61642 13.949 3.95314 -94.8576 104.163 -106.421
lowerback 33.1805 -1.75401 1.42014
upperback 8.08525 -1.36866 -5.42985
thorax -8.3243 -0.208287 -6.08119
lowerneck -13.1363 20.1887 13.4311
upperneck 12.4206 31.989 -28.1206
head 13.7475 13.6043 -5.68886
rclavicle -3.97569e-015 2.06736e-014
rhumerus -29.9675 17.8033 -91.6327
rradius 62.0404
rwrist -62.4915
rhand -8.37136 -39.6724
rfingers 7.12502
rthumb 17.5515 -68.9002
lclavicle -3.97569e-015 2.06736e-014
lhumerus 32.5113 -82.239 61.1242
lradius 49.2376
lwrist 5.05395
lhand -38.2602 -22.5418
lfingers 7.12502
lthumb -11.2902 7.13436
rfemur -49.7022 -13.4092 -3.23103
rtibia 81.1723
rfoot -34.1879 -19.5665
rtoes -19.5128
lfemur -48.6796 13.7284 -8.81786
ltibia 48.5072
lfoot 1.3254 14.5718
ltoes -10.2406
408
root -4.59426 13.9146 3.89947 -89.3835 103.573 -101.506
lowerback 33.028 -1.72141 1.22461
upperback 7.99125 -1.39618 -5.46355
thorax -8.36765 -0.221847 -6.00287
lowerneck -13.2471 20.1368 13.348
upperneck 12.296 31.8753 -28.1096
head 13.6722 13.5487 -5.69915
rclavicle 2.38542e-015 3.73715e-014
rhumerus -29.954 17.6204 -91.6551
rradius 61.3375
rwrist -62.838
rhand -8.0441 -39.4638
rfingers 7.12502
rthumb 17.8664 -68.6631
lclavicle 2.38542e-015 3.73715e-014
lhumerus 32.2829 -82.2382 61.6245
lradius 48.801
lwrist 4.7419
lhand -36.3856 -21.4913
lfingers 7.12502
lthumb -9.48183 8.27538
rfemur -49.8712 -14.0197 -3.08885
rtibia 81.4449
rfoot -33.954 -20.4836
rtoes -20.6737
lfemur -49.3404 13.6109 -8.61346
ltibia 48.0683
lfoot 1.72925 12.5075
ltoes -19.3693
409
root -4.56245 13.8865 3.82987 -83.5138 102.993 -95.9298
lowerback 33.182 -1.74541 1.18855
upperback 7.98425 -1.42265 -5.50007
thorax -8.43868 -0.225997 -6.01422
lowerneck -12.7348 20.1154 13.4289
upperneck 11.4273 31.8034 -28.7689
head 13.3967 13.609 -5.9805
rclavicle 1.66979e-014 6.75868e-014
rhumerus -29.8682 17.368 -91.7006
rradius 60.5194
rwrist -63.3198
rhand -7.99496 -38.4721
rfingers 7.12502
rthumb 17.9137 -67.6671
lclavicle 1.66979e-014 6.75868e-014
lhumerus 35.3551 -82.7493 58.6151
lradius 48.2004
lwrist 2.88757
lhand -38.0284 -20.9563
lfingers 7.12502
lthumb -11.0667 8.73199
rfemur -49.54 -14.4791 -2.94762
rtibia 81.5562
rfoot -33.9431 -21.6201
rtoes -22.4199
lfemur -50.04 13.7173 -8.74014
ltibia 48.0723
lfoot 1.25775 10.3397
ltoes -25.3434
410
root -4.53511 13.8625 3.75662 -77.5083 102.571 -90.1489
lowerback 33.5252 -1.66675 0.990489
upperback 8.00686 -1.35987 -5.50692
thorax -8.53274 -0.181148 -5.93917
lowerneck -13.1755 20.0055 13.2941
upperneck 11.4233 31.5535 -28.5679
head 13.3422 13.4604 -5.93525
rclavicle -7.95139e-016 -3.33958e-014
rhumerus -29.7034 16.9501 -91.6619
rradius 59.7084
rwrist -63.4802
rhand -7.55407 -37.4056
rfingers 7.12502
rthumb 18.3379 -66.5613
lclavicle -7.95139e-016 -3.33958e-014
lhumerus 37.9465 -82.9515 56.3063
lradius 47.8528
lwrist 3.25711
lhand -37.384 -21.4738
lfingers 7.12502
lthumb -10.4451 8.24675
rfemur -49.0845 -14.7246 -2.85121
rtibia 81.5949
rfoot -34.0567 -22.8385
rtoes -24.2216
lfemur -50.9497 14.3154 -9.35508
ltibia 48.372
lfoot 0.623462 8.77035
ltoes -27.0129
411
root -4.50776 13.8325 3.65205 -72.299 102.13 -85.5382
lowerback 33.485 -1.45142 0.890207
upperback 7.97412 -1.11429 -5.49378
thorax -8.52364 -0.0636362 -5.96297
lowerneck -13.7686 19.8631 13.0703
upperneck 11.7328 31.3728 -28.3224
head 13.4342 13.3017 -5.83937
rclavicle 4.05521e-014 6.48038e-014
rhumerus -29.6285 16.4023 -91.4338
rradius 59.1687
rwrist -63.513
rhand -6.76628 -36.5098
rfingers 7.12502
rthumb 19.0956 -65.5924
lclavicle 4.05521e-014 6.48038e-014
lhumerus 39.8275 -82.9695 54.9938
lradius 47.6536
lwrist 4.722
lhand -35.176 -21.5662
lfingers 7.12502
lthumb -8.31467 8.2502
rfemur -49.1708 -14.8869 -2.77429
rtibia 81.592
rfoot -33.9159 -23.7666
rtoes -24.8512
lfemur -52.5356 15.1218 -10.228
ltibia 49.0099
lfoot 0.00640623 7.65621
ltoes -26.5159
412
root -4.47602 13.8068 3.55267 -65.5364 101.942 -79.2132
lowerback 33.7158 -1.28565 0.598713
upperback 7.97759 -0.970337 -5.39275
thorax -8.57972 0.0158058 -5.75217
lowerneck -14.3935 19.7316 12.8404
upperneck 12.0533 31.2256 -28.11
head 13.5543 13.1521 -5.74143
rclavicle -1.98785e-014 5.40694e-014
rhumerus -29.6201 15.6926 -91.1591
rradius 58.7945
rwrist -63.5322
rhand -6.011 -36.3958
rfingers 7.12502
rthumb 19.8218 -65.405
lclavicle -1.98785e-014 5.40694e-014
lhumerus 42.329 -83.0101 53.1072
lradius 47.207
lwrist 4.75573
lhand -34.3072 -21.2685
lfingers 7.12502
lthumb -7.47607 8.5794
rfemur -48.7809 -15.138 -2.82865
rtibia 81.5992
rfoot -34.1975 -24.4093
rtoes -23.7943
lfemur -54.2298 15.6598 -11.2271
ltibia 49.8607
lfoot -0.321988 6.4487
ltoes -25.2544
413
root -4.44791 13.7833 3.43457 -57.5545 102.17 -71.6379
lowerback 34.1737 -1.32302 0.504139
upperback 7.91756 -1.03199 -5.41594
thorax -8.82405 -0.00249755 -5.70879
lowerneck -15.0265 19.6212 12.6973
upperneck 12.4879 31.0562 -27.711
head 13.684 12.9943 -5.59913
rclavicle 2.26615e-014 -4.29375e-014
rhumerus -29.7621 14.9055 -91.0774
rradius 58.3935
rwrist -63.5982
rhand -5.56061 -36.4153
rfingers 7.12502
rthumb 20.2547 -65.3793
lclavicle 2.26615e-014 -4.29375e-014
lhumerus 44.7164 -83.1953 51.2414
lradius 46.6182
lwrist 4.36225
lhand -33.6971 -20.8611
lfingers 7.12502
lthumb -6.88714 9.00687
rfemur -48.1554 -15.7415 -3.14587
rtibia 81.5347
rfoot -34.5476 -24.7339
rtoes -22.8189
lfemur -56.0785 15.4651 -12.2061
ltibia 50.9289
lfoot -0.441841 5.40004
ltoes -23.5751
414
root -4.41913 13.7602 3.31278 -49.9452 102.571 -64.4311
lowerback 34.5165 -1.23616 0.209029
upperback 7.89568 -0.98329 -5.24015
thorax -8.95506 0.0329885 -5.38288
lowerneck -15.2149 19.438 12.4874
upperneck 12.6122 30.8714 -27.6995
head 13.6908 12.8805 -5.61855
rclavicle -7.95139e-016 -2.38542e-014
rhumerus -29.9077 14.4045 -90.7375
rradius 58.0372
rwrist -63.8141
rhand -5.41842 -36.1354
rfingers 7.12502
rthumb 20.3913 -65.0847
lclavicle -7.95139e-016 -2.38542e-014
lhumerus 47.2325 -83.3181 49.5443
lradius 45.8861
lwrist 4.2045
lhand -32.7989 -20.6001
lfingers 7.12502
lthumb -6.02004 9.29437
rfemur -47.4689 -16.2426 -3.4308
rtibia 81.381
rfoot -34.7919 -25.147
rtoes -22.6401
lfemur -57.8581 15.0188 -12.896
ltibia 52.0576
lfoot -0.65374 4.11204
ltoes -22.1719
415
root -4.3812 13.7426 3.18706 -43.7817 103.068 -58.4997
lowerback 35.1104 -1.06388 -0.305747
upperback 7.88204 -0.899425 -5.05698
thorax -9.15964 0.0929801 -4.94798
lowerneck -15.3474 19.3107 12.2264
upperneck 12.6891 30.8079 -27.7786
head 13.7099 12.8206 -5.62814
rclavicle 1.19271e-014 -6.08281e-014
rhumerus -30.0485 14.0409 -90.3724
rradius 57.7066
rwrist -63.9882
rhand -5.23905 -35.9719
rfingers 7.12502
rthumb 20.5637 -64.9027
lclavicle 1.19271e-014 -6.08281e-014
lhumerus 50.0167 -83.3718 47.6303
lradius 45.0486
lwrist 4.11672
lhand -31.3582 -20.3157
lfingers 7.12502
lthumb -4.62903 9.61368
rfemur -46.5363 -16.4072 -3.79601
rtibia 81.0892
rfoot -34.9215 -25.7783
rtoes -23.1047
lfemur -59.2512 14.5627 -13.4121
ltibia 53.1752
lfoot -1.20085 2.62978
ltoes -21.0894
416
root -4.33972 13.7302 3.05539 -38.2301 103.75 -53.1218
lowerback 35.957 -0.905845 -0.827813
upperback 7.80151 -0.855063 -4.92042
thorax -9.53284 0.136421 -4.55086
lowerneck -15.8958 19.2015 11.9462
upperneck 13.1344 30.7623 -27.539
head 13.8784 12.7119 -5.49446
rclavicle 0 -4.01545e-014
rhumerus -30.1931 13.5718 -90.0841
rradius 57.2044
rwrist -64.1458
rhand -4.86774 -35.7824
rfingers 7.12502
rthumb 20.9205 -64.6743
lclavicle 0 -4.01545e-014
lhumerus 54.6379 -83.6338 43.8009
lradius 44.2335
lwrist 3.91115
lhand -28.9851 -19.2769
lfingers 7.12502
lthumb -2.33734 10.69
rfemur -45.4758 -16.5908 -4.2262
rtibia 80.7101
rfoot -34.9106 -26.5809
rtoes -23.9926
lfemur -60.5069 14.0186 -13.9631
ltibia 54.3046
lfoot -1.73951 1.06253
ltoes -20.5755
417
root -4.29702 13.7206 2.91629 -33.7199 104.522 -48.7281
lowerback 37.0293 -0.717457 -1.31011
upperback 7.60126 -0.783816 -4.84138
thorax -9.99629 0.195543 -4.27645
lowerneck -16.4165 18.9911 11.6571
upperneck 13.5542 30.5503 -27.2656
head 13.9855 12.5402 -5.40225
rclavicle 7.55382e-015 5.76476e-014
rhumerus -30.3674 13.0164 -89.8438
rradius 56.5896
rwrist -64.5136
rhand -4.54689 -35.5431
rfingers 7.12502
rthumb 21.2287 -64.4006
lclavicle 7.55382e-015 5.76476e-014
lhumerus 61.0164 -84.2422 38.0383
lradius 43.6306
lwrist 4.54675
lhand -30.7809 -19.0783
lfingers 7.12502
lthumb -4.07161 10.8626
rfemur -44.337 -16.7666 -4.71527
rtibia 80.2407
rfoot -34.8522 -27.3837
rtoes -24.9513
lfemur -61.6009 13.5307 -14.6367
ltibia 55.4079
lfoot -2.1683 -0.300503
ltoes -19.818
418
root -4.23912 13.704 2.7522 -30.4295 105.022 -46.1647
lowerback 36.907 -0.373412 -1.92502
upperback 7.55597 -0.570124 -4.81003
thorax -9.97115 0.306243 -4.00264
lowerneck -16.7692 18.8362 11.2422
upperneck 13.6555 30.4064 -27.1494
head 13.9624 12.4284 -5.33056
rclavicle -4.05521e-014 -4.17448e-014
rhumerus -30.3848 12.6761 -89.5453
rradius 56.003
rwrist -64.9834
rhand -4.33114 -36.1095
rfingers 7.12502
rthumb 21.4359 -64.9436
lclavicle -4.05521e-014 -4.17448e-014
lhumerus 70.1334 -84.8219 29.4078
lradius 43.2159
lwrist 7.56988
lhand -32.3665 -20.514
lfingers 7.12502
lthumb -5.60256 9.39196
rfemur -43.9651 -16.8673 -5.22938
rtibia 79.7167
rfoot -34.9484 -27.7321
rtoes -25.2949
lfemur -63.2554 13.2627 -15.4785
ltibia 56.67
lfoot -2.83354 -1.14839
ltoes -18.0687
